<?xml version="1.0" encoding="UTF-8" standalone="no"?>
<!--part of the rodentia icon theme by sixsixfive released under CC0 (https://creativecommons.org/publicdomain/zero/1.0/) on openclipart-->
<svg xmlns="http://www.w3.org/2000/svg" xmlns:xlink="http://www.w3.org/1999/xlink" viewBox="0 0 48 48">
 <defs id="0">
  <linearGradient id="5">
   <stop id="P" stop-color="#eeeeec"/>
   <stop id="Q" offset="1" stop-color="#d3d7cf"/>
  </linearGradient>
  <linearGradient id="6">
   <stop id="R" stop-color="#fff" stop-opacity="0.8"/>
   <stop id="S" offset="1" stop-color="#fff" stop-opacity="0"/>
  </linearGradient>
  <linearGradient id="7">
   <stop id="T" stop-color="#2e3436"/>
   <stop id="U" offset="1" stop-color="#2e3436" stop-opacity="0"/>
  </linearGradient>
  <filter x="-0.16" y="-0.151" width="1.321" height="1.302" color-interpolation-filters="sRGB" id="8">
   <feGaussianBlur stdDeviation="0.5327" id="V"/>
  </filter>
  <radialGradient cx="25.712" cy="48.735" r="21.856" id="9" xlink:href="#7" gradientUnits="userSpaceOnUse" gradientTransform="matrix(1,0,0,0.09243698,0,44.229759)"/>
  <radialGradient cx="25.892" cy="8.099" r="16.219" id="A" xlink:href="#5" gradientUnits="userSpaceOnUse" gradientTransform="matrix(-0.1953471,-2.6266373,2.2086625,-0.164262,21.842588,105.16798)"/>
  <linearGradient x1="40.22" y1="43.531" x2="7.969" y2="43.34" id="B" xlink:href="#6" gradientUnits="userSpaceOnUse"/>
  <radialGradient cx="34.13" cy="8.609" r="3.03" id="C" xlink:href="#5" gradientUnits="userSpaceOnUse" gradientTransform="matrix(1.9999999,2.0717464e-7,-2.1678585e-7,2.0927836,-34.124995,-9.2675658)"/>
  <linearGradient x1="34.13" y1="8.75" x2="36.533" y2="6.363" id="D" xlink:href="#6" gradientUnits="userSpaceOnUse"/>
 </defs>
 <path d="m 47.568058,48.734642 a 21.855595,2.0202651 0 1 1 -43.7111893,0 21.855595,2.0202651 0 1 1 43.7111893,0 z" transform="matrix(1.0944165,0,0,0.9661277,-4.1401442,-6.9638467)" id="1" opacity="0.54" fill="url(#9)"/>
 <g transform="matrix(0,-1,-1,0,47.03925,47.178125)" id="2">
  <path d="M 9.84375,1.367375 C 8.1263501,1.367375 6.75,2.7437253 6.75,4.461125 l 0,37.15625 c 0,1.7174 1.3763496,3.093751 3.09375,3.09375 l 28.3125,0 c 1.7174,0 3.09375,-1.376351 3.09375,-3.09375 l 0,-33.21875 -6.75,-7.03125 -24.65625,0 z" id="E" fill="#888a85"/>
  <path d="m 9.84375,2.25 c -1.1586131,0 -2.0625,0.903887 -2.0625,2.0625 l 0,37.15625 c 0,1.158614 0.9038868,2.062501 2.0625,2.0625 l 28.3125,0 c 1.158613,0 2.0625,-0.903888 2.0625,-2.0625 l 0,-32.78125 L 34.0625,2.25 9.84375,2.25 z" transform="translate(4.4958504e-8,0.148625)" id="F" fill="url(#A)"/>
  <path d="m 9.84375,2.75 c -0.8977312,0 -1.5625,0.6647689 -1.5625,1.5625 l 0,37.15625 c 0,0.897732 0.6647689,1.562501 1.5625,1.5625 l 28.3125,0 c 0.897731,0 1.5625,-0.66477 1.5625,-1.5625 l 0,-32.625 -5.875,-6.09375 -24,0 z" transform="translate(4.4958504e-8,0.148625)" id="G" opacity="0.8" fill="none" stroke="url(#B)" stroke-linejoin="round" stroke-linecap="square"/>
  <path d="m 32.25,2.40625 0,6.875 c 0,0.956611 0.676661,1.593751 1.71875,1.59375 l 6.25,0 0,-1.8125 -6.9375,-6.65625 -1.03125,0 z" id="H" opacity="0.16" fill="#2e3436" filter="url(#8)"/>
  <path d="m 33.125,1.375 0,6.3125 c -2e-6,1.158614 0.903887,2.062501 2.0625,2.0625 l 6.0625,0 0,-1.34375 -6.75,-7.03125 -1.375,0 z" id="I" fill="#888a85"/>
  <path d="m 34.125,2.40625 0,5.28125 c -10e-7,0.6407004 0.421799,1.0625006 1.0625,1.0625 l 5,0 -6.0625,-6.34375 z" id="J" fill="url(#C)"/>
  <path d="m 34.625,3.6875 0,4 c -10e-7,0.3773049 0.185194,0.5625003 0.5625,0.5625 l 3.84375,0 L 34.625,3.6875 z" id="K" opacity="0.8" fill="none" stroke="url(#D)" stroke-linecap="square"/>
 </g>
 <g transform="translate(0,1)" id="3" fill="#fff">
  <path d="m 23.86743,9.9185935 c -4.592192,0.1239155 -5.456156,3.5132645 -5.210974,6.0629795 0.03808,0.395966 0.218927,0.757064 0.505707,1.077374 0.02694,-0.251345 0.0637,-0.498586 0.115433,-0.742069 -0.01925,0.216085 -0.02748,0.437223 -0.02748,0.659617 0,2.052871 0.842147,3.866464 2.121768,4.936133 -0.08524,0.501839 -0.277074,0.930214 -0.560675,1.451158 l -4.793216,1.027902 c -2.32355,0.537523 -2.499351,3.846027 -2.34164,5.524292 20.699359,-0.05874 -0.03999,0.03458 20.689984,-0.04397 -0.07094,-1.834736 -0.33017,-5.096012 -2.693436,-5.601246 L 27.132534,23.40776 c -3.45e-4,-0.01466 0.0011,-0.02931 0,-0.04397 l -0.280337,-1.544604 c 1.220281,-1.079607 2.017328,-2.846689 2.017328,-4.842687 0,-0.02016 1.62e-4,-0.04036 0,-0.06047 0.01971,0.100583 0.03932,0.200031 0.05497,0.285834 0.260244,-0.350911 0.199205,-0.951625 0.269344,-1.423673 0.364948,-2.456155 -1.018093,-5.7872355 -4.864675,-5.8595975 -0.155984,-0.00293 -0.313592,-0.004 -0.461732,0 z" id="L" fill-rule="evenodd"/>
  <g transform="translate(-0.941411,0.3999198)" id="M">
   <rect width="10.647" height="3" x="8.02" y="32.479" id="W"/>
   <rect width="19.368" height="3" x="22.496" y="32.479" id="X"/>
  </g>
 </g>
 <g id="4">
  <path d="m 23.86743,9.9185935 c -4.592192,0.1239155 -5.456156,3.5132645 -5.210974,6.0629795 0.03808,0.395966 0.218927,0.757064 0.505707,1.077374 0.02694,-0.251345 0.0637,-0.498586 0.115433,-0.742069 -0.01925,0.216085 -0.02748,0.437223 -0.02748,0.659617 0,2.052871 0.842147,3.866464 2.121768,4.936133 -0.08524,0.501839 -0.277074,0.930214 -0.560675,1.451158 l -4.793216,1.027902 c -2.32355,0.537523 -2.499351,3.846027 -2.34164,5.524292 20.699359,-0.05874 -0.03999,0.03458 20.689984,-0.04397 -0.07094,-1.834736 -0.33017,-5.096012 -2.693436,-5.601246 L 27.132534,23.40776 c -3.45e-4,-0.01466 0.0011,-0.02931 0,-0.04397 l -0.280337,-1.544604 c 1.220281,-1.079607 2.017328,-2.846689 2.017328,-4.842687 0,-0.02016 1.62e-4,-0.04036 0,-0.06047 0.01971,0.100583 0.03932,0.200031 0.05497,0.285834 0.260244,-0.350911 0.199205,-0.951625 0.269344,-1.423673 0.364948,-2.456155 -1.018093,-5.7872355 -4.864675,-5.8595975 -0.155984,-0.00293 -0.313592,-0.004 -0.461732,0 z" id="N" fill="#888a85" fill-rule="evenodd"/>
  <g transform="translate(-0.941411,0.3999198)" id="O" fill="#888a85">
   <rect width="10.647" height="3" x="8.02" y="32.479" id="Y"/>
   <rect width="19.368" height="3" x="22.496" y="32.479" id="Z"/>
  </g>
 </g>
</svg>
